<svg xmlns="http://www.w3.org/2000/svg" viewBox="0 0 64 64">
  <defs>
    <radialGradient id="petalGradient" cx="50%" cy="50%" r="50%">
      <stop offset="0%" stop-color="#FCE7F3"/>
      <stop offset="100%" stop-color="#EC4899"/>
    </radialGradient>
    <radialGradient id="centerGradient" cx="50%" cy="50%" r="50%">
      <stop offset="0%" stop-color="#FEF3C7"/>
      <stop offset="100%" stop-color="#F59E0B"/>
    </radialGradient>
  </defs>
  <g fill="url(#petalGradient)">
    <ellipse cx="32" cy="16" rx="10" ry="14" transform="rotate(0 32 32)"/>
    <ellipse cx="32" cy="16" rx="10" ry="14" transform="rotate(45 32 32)"/>
    <ellipse cx="32" cy="16" rx="10" ry="14" transform="rotate(90 32 32)"/>
    <ellipse cx="32" cy="16" rx="10" ry="14" transform="rotate(135 32 32)"/>
    <ellipse cx="32" cy="16" rx="10" ry="14" transform="rotate(180 32 32)"/>
    <ellipse cx="32" cy="16" rx="10" ry="14" transform="rotate(225 32 32)"/>
    <ellipse cx="32" cy="16" rx="10" ry="14" transform="rotate(270 32 32)"/>
    <ellipse cx="32" cy="16" rx="10" ry="14" transform="rotate(315 32 32)"/>
  </g>
  <circle cx="32" cy="32" r="12" fill="url(#centerGradient)"/>
</svg>
